<svg width="280" height="40" viewBox="0 0 280 40" fill="none" xmlns="http://www.w3.org/2000/svg">
<path d="M40 20C40 25.5228 37.7614 30.5228 34.1421 34.1421C30.5228 37.7614 25.5228 40 20 40C14.4772 40 9.47715 37.7614 5.85786 34.1421C2.23858 30.5228 0 25.5228 0 20C0 14.4772 2.23858 9.47715 5.85786 5.85786C9.47715 2.23858 14.4772 0 20 0C25.5228 0 30.5228 2.23858 34.1421 5.85786C37.7614 9.47715 40 14.4772 40 20Z" fill="#4D5AE5"/>
<g clip-path="url(#clip0_570569_2988)">
<path d="M31.9763 15.0561C31.9201 13.7809 31.7139 12.9042 31.4185 12.1445C31.1137 11.3381 30.6449 10.6162 30.0306 10.016C29.4305 9.40652 28.7038 8.93292 27.9068 8.63294C27.1427 8.33753 26.2706 8.13131 24.9954 8.07509C23.7106 8.0141 23.3028 8 20.0443 8C16.7859 8 16.378 8.0141 15.0981 8.07033C13.8228 8.12655 12.9461 8.33295 12.1867 8.62817C11.3801 8.93292 10.6582 9.40176 10.058 10.016C9.44852 10.6162 8.9751 11.3429 8.67493 12.1399C8.37952 12.9042 8.1733 13.7761 8.11708 15.0513C8.05609 16.336 8.04199 16.7439 8.04199 20.0023C8.04199 23.2608 8.05609 23.6686 8.11232 24.9486C8.16854 26.2238 8.37494 27.1005 8.67035 27.8602C8.9751 28.6666 9.44852 29.3885 10.058 29.9887C10.6582 30.5982 11.3849 31.0718 12.1819 31.3718C12.9461 31.6672 13.8181 31.8734 15.0935 31.9296C16.3733 31.986 16.7813 31.9999 20.0397 31.9999C23.2982 31.9999 23.706 31.986 24.986 31.9296C26.2612 31.8734 27.1379 31.6672 27.8974 31.3718C29.5103 30.7482 30.7855 29.4729 31.4091 27.8602C31.7044 27.096 31.9108 26.2238 31.967 24.9486C32.0232 23.6686 32.0373 23.2608 32.0373 20.0023C32.0373 16.7439 32.0326 16.336 31.9763 15.0561ZM29.8151 24.8549C29.7634 26.027 29.5666 26.6599 29.4025 27.0819C28.9992 28.1274 28.1694 28.9572 27.1238 29.3605C26.7019 29.5246 26.0644 29.7215 24.8968 29.7729C23.631 29.8293 23.2513 29.8433 20.0491 29.8433C16.8469 29.8433 16.4625 29.8293 15.2012 29.7729C14.0291 29.7215 13.3961 29.5246 12.9742 29.3605C12.4539 29.1682 11.9803 28.8634 11.5958 28.4649C11.1973 28.0758 10.8926 27.6069 10.7003 27.0866C10.5362 26.6647 10.3393 26.027 10.2879 24.8596C10.2314 23.5937 10.2175 23.2139 10.2175 20.0117C10.2175 16.8095 10.2314 16.425 10.2879 15.1639C10.3393 13.9918 10.5362 13.3589 10.7003 12.9369C10.8926 12.4165 11.1973 11.943 11.6006 11.5584C11.9896 11.1599 12.4584 10.8552 12.9789 10.6631C13.4009 10.499 14.0386 10.3021 15.2059 10.2504C16.4718 10.1942 16.8516 10.1801 20.0537 10.1801C23.2606 10.1801 23.6403 10.1942 24.9016 10.2504C26.0737 10.3021 26.7066 10.499 27.1286 10.6631C27.6489 10.8552 28.1225 11.1599 28.5069 11.5584C28.9054 11.9476 29.2102 12.4165 29.4025 12.9369C29.5666 13.3589 29.7634 13.9964 29.8151 15.1639C29.8713 16.4298 29.8854 16.8095 29.8854 20.0117C29.8854 23.2139 29.8713 23.589 29.8151 24.8549Z" fill="#F4F4FD"/>
<path d="M20.0442 13.837C16.6405 13.837 13.8789 16.5984 13.8789 20.0023C13.8789 23.4062 16.6405 26.1676 20.0442 26.1676C23.448 26.1676 26.2094 23.4062 26.2094 20.0023C26.2094 16.5984 23.448 13.837 20.0442 13.837ZM20.0442 24.0016C17.836 24.0016 16.0449 22.2106 16.0449 20.0023C16.0449 17.794 17.836 16.003 20.0442 16.003C22.2525 16.003 24.0434 17.794 24.0434 20.0023C24.0434 22.2106 22.2525 24.0016 20.0442 24.0016Z" fill="#F4F4FD"/>
<path d="M27.8935 13.5934C27.8935 14.3882 27.249 15.0327 26.454 15.0327C25.6591 15.0327 25.0146 14.3882 25.0146 13.5934C25.0146 12.7983 25.6591 12.1541 26.454 12.1541C27.249 12.1541 27.8935 12.7983 27.8935 13.5934Z" fill="#F4F4FD"/>
</g>
<path d="M120 20C120 25.5228 117.761 30.5228 114.142 34.1421C110.523 37.7614 105.523 40 100 40C94.4772 40 89.4772 37.7614 85.8579 34.1421C82.2386 30.5228 80 25.5228 80 20C80 14.4772 82.2386 9.47715 85.8579 5.85786C89.4772 2.23858 94.4772 0 100 0C105.523 0 110.523 2.23858 114.142 5.85786C117.761 9.47715 120 14.4772 120 20Z" fill="#4D5AE5"/>
<g clip-path="url(#clip1_570569_2988)">
<path d="M112 12.5585C111.108 12.95 110.156 13.2095 109.165 13.3355C110.185 12.7265 110.964 11.7695 111.33 10.616C110.378 11.183 109.328 11.5835 108.209 11.807C107.306 10.8455 106.019 10.25 104.615 10.25C101.891 10.25 99.6985 12.461 99.6985 15.1715C99.6985 15.5615 99.7315 15.9365 99.8125 16.2935C95.722 16.094 92.1025 14.1335 89.671 11.147C89.2465 11.8835 88.9975 12.7265 88.9975 13.634C88.9975 15.338 89.875 16.8485 91.183 17.723C90.3925 17.708 89.617 17.4785 88.96 17.117C88.96 17.132 88.96 17.1515 88.96 17.171C88.96 19.562 90.6655 21.548 92.902 22.0055C92.5015 22.115 92.065 22.1675 91.612 22.1675C91.297 22.1675 90.979 22.1495 90.6805 22.0835C91.318 24.032 93.127 25.4645 95.278 25.511C93.604 26.8205 91.4785 27.6095 89.1775 27.6095C88.774 27.6095 88.387 27.5915 88 27.542C90.1795 28.9475 92.7625 29.75 95.548 29.75C104.602 29.75 109.552 22.25 109.552 15.749C109.552 15.5315 109.545 15.3215 109.534 15.113C110.51 14.42 111.331 13.5545 112 12.5585Z" fill="#F4F4FD"/>
</g>
<path d="M200 20C200 25.5228 197.761 30.5228 194.142 34.1421C190.523 37.7614 185.523 40 180 40C174.477 40 169.477 37.7614 165.858 34.1421C162.239 30.5228 160 25.5228 160 20C160 14.4772 162.239 9.47715 165.858 5.85786C169.477 2.23858 174.477 0 180 0C185.523 0 190.523 2.23858 194.142 5.85786C197.761 9.47715 200 14.4772 200 20Z" fill="#4D5AE5"/>
<g clip-path="url(#clip2_570569_2988)">
<path d="M183.997 11.985H186.188V8.169C185.81 8.117 184.51 8 182.996 8C179.837 8 177.673 9.987 177.673 13.639V17H174.187V21.266H177.673V32H181.947V21.267H185.292L185.823 17.001H181.946V14.062C181.947 12.829 182.279 11.985 183.997 11.985Z" fill="#F4F4FD"/>
</g>
<path d="M280 20C280 25.5228 277.761 30.5228 274.142 34.1421C270.523 37.7614 265.523 40 260 40C254.477 40 249.477 37.7614 245.858 34.1421C242.239 30.5228 240 25.5228 240 20C240 14.4772 242.239 9.47715 245.858 5.85786C249.477 2.23858 254.477 0 260 0C265.523 0 270.523 2.23858 274.142 5.85786C277.761 9.47715 280 14.4772 280 20Z" fill="#4D5AE5"/>
<g clip-path="url(#clip3_570569_2988)">
<path d="M271.994 32.0001V31.9991H272V23.1971C272 18.8911 271.073 15.5741 266.039 15.5741C263.619 15.5741 261.995 16.9021 261.332 18.1611H261.262V15.9761H256.489V31.9991H261.459V24.0651C261.459 21.9761 261.855 19.9561 264.442 19.9561C266.991 19.9561 267.029 22.3401 267.029 24.1991V32.0001H271.994Z" fill="#F4F4FD"/>
<path d="M248.396 15.9769H253.372V31.9999H248.396V15.9769Z" fill="#F4F4FD"/>
<path d="M250.882 8C249.291 8 248 9.291 248 10.882C248 12.473 249.291 13.791 250.882 13.791C252.473 13.791 253.764 12.473 253.764 10.882C253.763 9.291 252.472 8 250.882 8V8Z" fill="#F4F4FD"/>
</g>
<defs>
<clipPath id="clip0_570569_2988">
<rect width="24" height="24" fill="white" transform="translate(8 8)"/>
</clipPath>
<clipPath id="clip1_570569_2988">
<rect width="24" height="24" fill="white" transform="translate(88 8)"/>
</clipPath>
<clipPath id="clip2_570569_2988">
<rect width="24" height="24" fill="white" transform="translate(168 8)"/>
</clipPath>
<clipPath id="clip3_570569_2988">
<rect width="24" height="24" fill="white" transform="translate(248 8)"/>
</clipPath>
</defs>
</svg>
